<?xml version="1.0" encoding="UTF-8" standalone="yes"?><svg xmlns="http://www.w3.org/2000/svg" xmlns:xlink="http://www.w3.org/1999/xlink" height="1043px" style="width:1123px;height:1043px;" version="1.1" viewBox="0 0 1123 1043" width="1123px"><defs><filter height="300%" id="f1" width="300%" x="-1" y="-1"><feGaussianBlur result="blurOut" stdDeviation="2.0"/><feColorMatrix in="blurOut" result="blurOut2" type="matrix" values="0 0 0 0 0 0 0 0 0 0 0 0 0 0 0 0 0 0 .4 0"/><feOffset dx="4.0" dy="4.0" in="blurOut2" result="blurOut3"/><feBlend in="SourceGraphic" in2="blurOut3" mode="normal"/></filter></defs><g><rect fill="#EFFFEF" filter="url(#f1)" height="177.1616" style="stroke: #0F0F0F; stroke-width: 1.5;" width="258" x="6" y="8"/><rect fill="#EFFFEF" height="26.3418" style="stroke: #0F0F0F; stroke-width: 1.5;" width="258" x="6" y="8"/><text fill="#000000" font-family="Open Sans" font-size="12" lengthAdjust="spacingAndGlyphs" textLength="146" x="62" y="25.8262">ElectronicLodgementCase</text><line style="stroke: #0F0F0F; stroke-width: 1.5;" x1="7" x2="263" y1="34.3418" y2="34.3418"/><text fill="#000000" font-family="Open Sans" font-size="11" lengthAdjust="spacingAndGlyphs" textLength="74" x="12" y="50.0991">RequestOrigin</text><text fill="#000000" font-family="Open Sans" font-size="11" lengthAdjust="spacingAndGlyphs" textLength="97" x="12" y="65.0791">RequestMessageID</text><text fill="#000000" font-family="Open Sans" font-size="11" lengthAdjust="spacingAndGlyphs" textLength="110" x="12" y="80.0591">LodgementReference</text><text fill="#000000" font-family="Open Sans" font-size="11" lengthAdjust="spacingAndGlyphs" textLength="109" x="12" y="95.0391">LodgeCaseExternalID</text><text fill="#000000" font-family="Open Sans" font-size="11" lengthAdjust="spacingAndGlyphs" textLength="83" x="12" y="110.019">LodgementDate</text><text fill="#000000" font-family="Open Sans" font-size="11" lengthAdjust="spacingAndGlyphs" textLength="246" x="12" y="124.999">LodgementInstructions: LodgementInstructions</text><text fill="#000000" font-family="Open Sans" font-size="11" lengthAdjust="spacingAndGlyphs" textLength="205" x="12" y="139.979">Instruments: InstrumentOrAdminNotice</text><text fill="#000000" font-family="Open Sans" font-size="11" lengthAdjust="spacingAndGlyphs" textLength="237" x="12" y="154.959">BundleSubscriptionIDs: BundleSubscriptionID</text><text fill="#000000" font-family="Open Sans" font-size="11" lengthAdjust="spacingAndGlyphs" textLength="90" x="12" y="169.939">SuppliedFeeTotal</text><line style="stroke: #0F0F0F; stroke-width: 1.5;" x1="7" x2="263" y1="177.1616" y2="177.1616"/><rect fill="#EFF1FF" filter="url(#f1)" height="132.2217" style="stroke: #0F0F0F; stroke-width: 1.5;" width="240" x="17" y="455"/><rect fill="#EFF1FF" height="26.3418" style="stroke: #0F0F0F; stroke-width: 1.5;" width="240" x="17" y="455"/><text fill="#000000" font-family="Open Sans" font-size="12" lengthAdjust="spacingAndGlyphs" textLength="128" x="73" y="472.8262">LodgementInstructions</text><line style="stroke: #0F0F0F; stroke-width: 1.5;" x1="18" x2="256" y1="481.3418" y2="481.3418"/><text fill="#000000" font-family="Open Sans" font-size="11" lengthAdjust="spacingAndGlyphs" textLength="104" x="23" y="497.0991">ExternalReferenceID</text><text fill="#000000" font-family="Open Sans" font-size="11" lengthAdjust="spacingAndGlyphs" textLength="102" x="23" y="512.0791">LodgingParty: Party</text><text fill="#000000" font-family="Open Sans" font-size="11" lengthAdjust="spacingAndGlyphs" textLength="228" x="23" y="527.0591">DealingRequirements: DealingRequirements</text><text fill="#000000" font-family="Open Sans" font-size="11" lengthAdjust="spacingAndGlyphs" textLength="113" x="23" y="542.0391">Executions: Execution</text><text fill="#000000" font-family="Open Sans" font-size="11" lengthAdjust="spacingAndGlyphs" textLength="195" x="23" y="557.019">IssuingInstructions: IssuingInstruction</text><text fill="#000000" font-family="Open Sans" font-size="11" lengthAdjust="spacingAndGlyphs" textLength="181" x="23" y="571.999">OperativeClauses: OperativeClause</text><line style="stroke: #0F0F0F; stroke-width: 1.5;" x1="18" x2="256" y1="579.2217" y2="579.2217"/><rect fill="#EFF1FF" filter="url(#f1)" height="147.2017" style="stroke: #0F0F0F; stroke-width: 1.5;" width="193" x="297.5" y="447.5"/><rect fill="#EFF1FF" height="26.3418" style="stroke: #0F0F0F; stroke-width: 1.5;" width="193" x="297.5" y="447.5"/><text fill="#000000" font-family="Open Sans" font-size="12" lengthAdjust="spacingAndGlyphs" textLength="147" x="320.5" y="465.3262">InstrumentOrAdminNotice</text><line style="stroke: #0F0F0F; stroke-width: 1.5;" x1="298.5" x2="489.5" y1="473.8418" y2="473.8418"/><text fill="#000000" font-family="Open Sans" font-size="11" lengthAdjust="spacingAndGlyphs" textLength="107" x="303.5" y="489.5991">InstrumentSequence</text><text fill="#000000" font-family="Open Sans" font-size="11" lengthAdjust="spacingAndGlyphs" textLength="141" x="303.5" y="504.5791">InstrumentDealing: Dealing</text><text fill="#000000" font-family="Open Sans" font-size="11" lengthAdjust="spacingAndGlyphs" textLength="104" x="303.5" y="519.5591">ExternalReferenceID</text><text fill="#000000" font-family="Open Sans" font-size="11" lengthAdjust="spacingAndGlyphs" textLength="165" x="303.5" y="534.5391">FolioReferences: FolioReference</text><text fill="#000000" font-family="Open Sans" font-size="11" lengthAdjust="spacingAndGlyphs" textLength="181" x="303.5" y="549.519">OperativeClauses: OperativeClause</text><text fill="#000000" font-family="Open Sans" font-size="11" lengthAdjust="spacingAndGlyphs" textLength="113" x="303.5" y="564.499">Executions: Execution</text><text fill="#000000" font-family="Open Sans" font-size="11" lengthAdjust="spacingAndGlyphs" textLength="132" x="303.5" y="579.479">SuppliedDealingFees: Fee</text><line style="stroke: #0F0F0F; stroke-width: 1.5;" x1="298.5" x2="489.5" y1="586.7017" y2="586.7017"/><rect fill="#EFF1FF" filter="url(#f1)" height="117.2417" style="stroke: #0F0F0F; stroke-width: 1.5;" width="92" x="526" y="462.5"/><rect fill="#EFF1FF" height="26.3418" style="stroke: #0F0F0F; stroke-width: 1.5;" width="92" x="526" y="462.5"/><text fill="#000000" font-family="Open Sans" font-size="12" lengthAdjust="spacingAndGlyphs" textLength="20" x="562" y="480.3262">Fee</text><line style="stroke: #0F0F0F; stroke-width: 1.5;" x1="527" x2="617" y1="488.8418" y2="488.8418"/><text fill="#000000" font-family="Open Sans" font-size="11" lengthAdjust="spacingAndGlyphs" textLength="43" x="532" y="504.5991">FeeType</text><text fill="#000000" font-family="Open Sans" font-size="11" lengthAdjust="spacingAndGlyphs" textLength="77" x="532" y="519.5791">FeeDescription</text><text fill="#000000" font-family="Open Sans" font-size="11" lengthAdjust="spacingAndGlyphs" textLength="78" x="532" y="534.5591">FeeNetAmount</text><text fill="#000000" font-family="Open Sans" font-size="11" lengthAdjust="spacingAndGlyphs" textLength="80" x="532" y="549.5391">FeeGSTAmount</text><text fill="#000000" font-family="Open Sans" font-size="11" lengthAdjust="spacingAndGlyphs" textLength="44" x="532" y="564.519">FeeTotal</text><line style="stroke: #0F0F0F; stroke-width: 1.5;" x1="527" x2="617" y1="571.7417" y2="571.7417"/><rect fill="#EFF1FF" filter="url(#f1)" height="177.1616" style="stroke: #0F0F0F; stroke-width: 1.5;" width="146" x="607" y="857"/><rect fill="#EFF1FF" height="26.3418" style="stroke: #0F0F0F; stroke-width: 1.5;" width="146" x="607" y="857"/><text fill="#000000" font-family="Open Sans" font-size="12" lengthAdjust="spacingAndGlyphs" textLength="29" x="665.5" y="874.8262">Party</text><line style="stroke: #0F0F0F; stroke-width: 1.5;" x1="608" x2="752" y1="883.3418" y2="883.3418"/><text fill="#000000" font-family="Open Sans" font-size="11" lengthAdjust="spacingAndGlyphs" textLength="52" x="613" y="899.0991">PartyType</text><text fill="#000000" font-family="Open Sans" font-size="11" lengthAdjust="spacingAndGlyphs" textLength="66" x="613" y="914.0791">GivenName1</text><text fill="#000000" font-family="Open Sans" font-size="11" lengthAdjust="spacingAndGlyphs" textLength="66" x="613" y="929.0591">GivenName2</text><text fill="#000000" font-family="Open Sans" font-size="11" lengthAdjust="spacingAndGlyphs" textLength="95" x="613" y="944.0391">GivenNameOthers</text><text fill="#000000" font-family="Open Sans" font-size="11" lengthAdjust="spacingAndGlyphs" textLength="96" x="613" y="959.019">SurnameCompany</text><text fill="#000000" font-family="Open Sans" font-size="11" lengthAdjust="spacingAndGlyphs" textLength="41" x="613" y="973.999">Address</text><text fill="#000000" font-family="Open Sans" font-size="11" lengthAdjust="spacingAndGlyphs" textLength="83" x="613" y="988.979">ACN_ABN_ARBN</text><text fill="#000000" font-family="Open Sans" font-size="11" lengthAdjust="spacingAndGlyphs" textLength="134" x="613" y="1003.959">OrganisationNumberType</text><text fill="#000000" font-family="Open Sans" font-size="11" lengthAdjust="spacingAndGlyphs" textLength="129" x="613" y="1018.939">GovernmentProprietorID</text><line style="stroke: #0F0F0F; stroke-width: 1.5;" x1="608" x2="752" y1="1026.1616" y2="1026.1616"/><rect fill="#EFF1FF" filter="url(#f1)" height="551.6611" style="stroke: #0F0F0F; stroke-width: 1.5;" width="117" x="733.5" y="245"/><rect fill="#EFF1FF" height="26.3418" style="stroke: #0F0F0F; stroke-width: 1.5;" width="117" x="733.5" y="245"/><text fill="#000000" font-family="Open Sans" font-size="12" lengthAdjust="spacingAndGlyphs" textLength="46" x="769" y="262.8262">Address</text><line style="stroke: #0F0F0F; stroke-width: 1.5;" x1="734.5" x2="849.5" y1="271.3418" y2="271.3418"/><text fill="#000000" font-family="Open Sans" font-size="11" lengthAdjust="spacingAndGlyphs" textLength="66" x="739.5" y="287.0991">AddressType</text><text fill="#000000" font-family="Open Sans" font-size="11" lengthAdjust="spacingAndGlyphs" textLength="81" x="739.5" y="302.0791">PropertyName1</text><text fill="#000000" font-family="Open Sans" font-size="11" lengthAdjust="spacingAndGlyphs" textLength="81" x="739.5" y="317.0591">PropertyName2</text><text fill="#000000" font-family="Open Sans" font-size="11" lengthAdjust="spacingAndGlyphs" textLength="52" x="739.5" y="332.0391">FloorType</text><text fill="#000000" font-family="Open Sans" font-size="11" lengthAdjust="spacingAndGlyphs" textLength="42" x="739.5" y="347.019">FloorNo</text><text fill="#000000" font-family="Open Sans" font-size="11" lengthAdjust="spacingAndGlyphs" textLength="72" x="739.5" y="361.999">FloorNoSuffix</text><text fill="#000000" font-family="Open Sans" font-size="11" lengthAdjust="spacingAndGlyphs" textLength="47" x="739.5" y="376.979">UnitType</text><text fill="#000000" font-family="Open Sans" font-size="11" lengthAdjust="spacingAndGlyphs" textLength="64" x="739.5" y="391.959">UnitNoFrom</text><text fill="#000000" font-family="Open Sans" font-size="11" lengthAdjust="spacingAndGlyphs" textLength="94" x="739.5" y="406.939">UnitNoFromSuffix</text><text fill="#000000" font-family="Open Sans" font-size="11" lengthAdjust="spacingAndGlyphs" textLength="50" x="739.5" y="421.9189">UnitNoTo</text><text fill="#000000" font-family="Open Sans" font-size="11" lengthAdjust="spacingAndGlyphs" textLength="80" x="739.5" y="436.8989">UnitNoToSuffix</text><text fill="#000000" font-family="Open Sans" font-size="11" lengthAdjust="spacingAndGlyphs" textLength="72" x="739.5" y="451.8789">StreetNoFrom</text><text fill="#000000" font-family="Open Sans" font-size="11" lengthAdjust="spacingAndGlyphs" textLength="105" x="739.5" y="466.8589">StreetNoFrom Suffix</text><text fill="#000000" font-family="Open Sans" font-size="11" lengthAdjust="spacingAndGlyphs" textLength="58" x="739.5" y="481.8389">StreetNoTo</text><text fill="#000000" font-family="Open Sans" font-size="11" lengthAdjust="spacingAndGlyphs" textLength="88" x="739.5" y="496.8188">StreetNoToSuffix</text><text fill="#000000" font-family="Open Sans" font-size="11" lengthAdjust="spacingAndGlyphs" textLength="66" x="739.5" y="511.7988">StreetName1</text><text fill="#000000" font-family="Open Sans" font-size="11" lengthAdjust="spacingAndGlyphs" textLength="61" x="739.5" y="526.7788">StreetType1</text><text fill="#000000" font-family="Open Sans" font-size="11" lengthAdjust="spacingAndGlyphs" textLength="66" x="739.5" y="541.7588">StreetSuffix1</text><text fill="#000000" font-family="Open Sans" font-size="11" lengthAdjust="spacingAndGlyphs" textLength="66" x="739.5" y="556.7388">StreetName2</text><text fill="#000000" font-family="Open Sans" font-size="11" lengthAdjust="spacingAndGlyphs" textLength="61" x="739.5" y="571.7188">StreetType2</text><text fill="#000000" font-family="Open Sans" font-size="11" lengthAdjust="spacingAndGlyphs" textLength="66" x="739.5" y="586.6987">StreetSuffix2</text><text fill="#000000" font-family="Open Sans" font-size="11" lengthAdjust="spacingAndGlyphs" textLength="40" x="739.5" y="601.6787">Locality</text><text fill="#000000" font-family="Open Sans" font-size="11" lengthAdjust="spacingAndGlyphs" textLength="26" x="739.5" y="616.6587">State</text><text fill="#000000" font-family="Open Sans" font-size="11" lengthAdjust="spacingAndGlyphs" textLength="42" x="739.5" y="631.6387">Country</text><text fill="#000000" font-family="Open Sans" font-size="11" lengthAdjust="spacingAndGlyphs" textLength="50" x="739.5" y="646.6187">PostCode</text><text fill="#000000" font-family="Open Sans" font-size="11" lengthAdjust="spacingAndGlyphs" textLength="98" x="739.5" y="661.5986">PostalAddressType</text><text fill="#000000" font-family="Open Sans" font-size="11" lengthAdjust="spacingAndGlyphs" textLength="88" x="739.5" y="676.5786">PostalAddressNo</text><text fill="#000000" font-family="Open Sans" font-size="11" lengthAdjust="spacingAndGlyphs" textLength="91" x="739.5" y="691.5586">TextAddressLine1</text><text fill="#000000" font-family="Open Sans" font-size="11" lengthAdjust="spacingAndGlyphs" textLength="91" x="739.5" y="706.5386">TextAddressLine2</text><text fill="#000000" font-family="Open Sans" font-size="11" lengthAdjust="spacingAndGlyphs" textLength="91" x="739.5" y="721.5186">TextAddressLine3</text><text fill="#000000" font-family="Open Sans" font-size="11" lengthAdjust="spacingAndGlyphs" textLength="91" x="739.5" y="736.4985">TextAddressLine4</text><text fill="#000000" font-family="Open Sans" font-size="11" lengthAdjust="spacingAndGlyphs" textLength="97" x="739.5" y="751.4785">DXAddressNumber</text><text fill="#000000" font-family="Open Sans" font-size="11" lengthAdjust="spacingAndGlyphs" textLength="100" x="739.5" y="766.4585">DXAddressLocation</text><text fill="#000000" font-family="Open Sans" font-size="11" lengthAdjust="spacingAndGlyphs" textLength="69" x="739.5" y="781.4385">EmailAddress</text><line style="stroke: #0F0F0F; stroke-width: 1.5;" x1="734.5" x2="849.5" y1="788.6611" y2="788.6611"/><rect fill="#FFF0EF" filter="url(#f1)" height="87.2817" style="stroke: #0F0F0F; stroke-width: 1.5;" width="195" x="697.5" y="53"/><rect fill="#FFF0EF" height="26.3418" style="stroke: #0F0F0F; stroke-width: 1.5;" width="195" x="697.5" y="53"/><text fill="#000000" font-family="Open Sans" font-size="12" lengthAdjust="spacingAndGlyphs" textLength="76" x="757" y="70.8262">PriorityNotice</text><line style="stroke: #0F0F0F; stroke-width: 1.5;" x1="698.5" x2="891.5" y1="79.3418" y2="79.3418"/><text fill="#000000" font-family="Open Sans" font-size="11" lengthAdjust="spacingAndGlyphs" textLength="87" x="703.5" y="95.0991">Applicants: Party</text><text fill="#000000" font-family="Open Sans" font-size="11" lengthAdjust="spacingAndGlyphs" textLength="170" x="703.5" y="110.0791">ServiceOfNoticeAddress: Address</text><text fill="#000000" font-family="Open Sans" font-size="11" lengthAdjust="spacingAndGlyphs" textLength="183" x="703.5" y="125.0591">IntendedDealings: IntendedDealing</text><line style="stroke: #0F0F0F; stroke-width: 1.5;" x1="698.5" x2="891.5" y1="132.2817" y2="132.2817"/><rect fill="#FFEFF8" filter="url(#f1)" height="57.3218" style="stroke: #0F0F0F; stroke-width: 1.5;" width="164" x="299" y="68"/><rect fill="#FFEFF8" height="26.3418" style="stroke: #0F0F0F; stroke-width: 1.5;" width="164" x="299" y="68"/><text fill="#000000" font-family="Open Sans" font-size="12" lengthAdjust="spacingAndGlyphs" textLength="129" x="316.5" y="85.8262">WithdrawPriorityNotice</text><line style="stroke: #0F0F0F; stroke-width: 1.5;" x1="300" x2="462" y1="94.3418" y2="94.3418"/><text fill="#000000" font-family="Open Sans" font-size="11" lengthAdjust="spacingAndGlyphs" textLength="152" x="305" y="110.0991">PriorityNoticeDealingNumber</text><line style="stroke: #0F0F0F; stroke-width: 1.5;" x1="300" x2="462" y1="117.3218" y2="117.3218"/><rect fill="#F8EFFF" filter="url(#f1)" height="57.3218" style="stroke: #0F0F0F; stroke-width: 1.5;" width="164" x="498" y="68"/><rect fill="#F8EFFF" height="26.3418" style="stroke: #0F0F0F; stroke-width: 1.5;" width="164" x="498" y="68"/><text fill="#000000" font-family="Open Sans" font-size="12" lengthAdjust="spacingAndGlyphs" textLength="114" x="523" y="85.8262">ExtendPriorityNotice</text><line style="stroke: #0F0F0F; stroke-width: 1.5;" x1="499" x2="661" y1="94.3418" y2="94.3418"/><text fill="#000000" font-family="Open Sans" font-size="11" lengthAdjust="spacingAndGlyphs" textLength="152" x="504" y="110.0991">PriorityNoticeDealingNumber</text><line style="stroke: #0F0F0F; stroke-width: 1.5;" x1="499" x2="661" y1="117.3218" y2="117.3218"/><rect fill="#FFF0EF" filter="url(#f1)" height="117.2417" style="stroke: #0F0F0F; stroke-width: 1.5;" width="228" x="886" y="462.5"/><rect fill="#FFF0EF" height="26.3418" style="stroke: #0F0F0F; stroke-width: 1.5;" width="228" x="886" y="462.5"/><text fill="#000000" font-family="Open Sans" font-size="12" lengthAdjust="spacingAndGlyphs" textLength="92" x="954" y="480.3262">IntendedDealing</text><line style="stroke: #0F0F0F; stroke-width: 1.5;" x1="887" x2="1113" y1="488.8418" y2="488.8418"/><text fill="#000000" font-family="Open Sans" font-size="11" lengthAdjust="spacingAndGlyphs" textLength="89" x="892" y="504.5991">DealingSequence</text><text fill="#000000" font-family="Open Sans" font-size="11" lengthAdjust="spacingAndGlyphs" textLength="79" x="892" y="519.5791">DocumentType</text><text fill="#000000" font-family="Open Sans" font-size="11" lengthAdjust="spacingAndGlyphs" textLength="208" x="892" y="534.5591">AffectedLandReferences: LandReference</text><text fill="#000000" font-family="Open Sans" font-size="11" lengthAdjust="spacingAndGlyphs" textLength="216" x="892" y="549.5391">AffectedDealingNumbers: DealingNumber</text><text fill="#000000" font-family="Open Sans" font-size="11" lengthAdjust="spacingAndGlyphs" textLength="117" x="892" y="564.519">PartiesReceiving: Party</text><line style="stroke: #0F0F0F; stroke-width: 1.5;" x1="887" x2="1113" y1="571.7417" y2="571.7417"/><rect fill="#FFF0EF" filter="url(#f1)" height="87.2817" style="stroke: #0F0F0F; stroke-width: 1.5;" width="188" x="906" y="902"/><rect fill="#FFF0EF" height="26.3418" style="stroke: #0F0F0F; stroke-width: 1.5;" width="188" x="906" y="902"/><text fill="#000000" font-family="Open Sans" font-size="12" lengthAdjust="spacingAndGlyphs" textLength="84" x="958" y="919.8262">LandReference</text><line style="stroke: #0F0F0F; stroke-width: 1.5;" x1="907" x2="1093" y1="928.3418" y2="928.3418"/><text fill="#000000" font-family="Open Sans" font-size="11" lengthAdjust="spacingAndGlyphs" textLength="26" x="912" y="944.0991">Folio</text><text fill="#000000" font-family="Open Sans" font-size="11" lengthAdjust="spacingAndGlyphs" textLength="46" x="912" y="959.0791">AsToPart</text><text fill="#000000" font-family="Open Sans" font-size="11" lengthAdjust="spacingAndGlyphs" textLength="176" x="912" y="974.0591">LandDescription: LandDescription</text><line style="stroke: #0F0F0F; stroke-width: 1.5;" x1="907" x2="1093" y1="981.2817" y2="981.2817"/><path d="M135.414,185.042 C135.786,263.526 136.324,377.182 136.668,449.833 " fill="none" style="stroke: #4F4F4F; stroke-width: 1.0;"/><polygon fill="#4F4F4F" points="136.692,454.991,140.6482,445.9717,136.6677,449.9911,132.6483,446.0105,136.692,454.991" style="stroke: #4F4F4F; stroke-width: 1.0;"/><text fill="#000000" font-family="Open Sans" font-size="9" font-weight="bold" lengthAdjust="spacingAndGlyphs" textLength="5" x="128.1488" y="202.7904">1</text><text fill="#000000" font-family="Open Sans" font-size="9" font-weight="bold" lengthAdjust="spacingAndGlyphs" textLength="16" x="119.7314" y="444.2866">0..1</text><path d="M155.679,587.04 C176.562,648.922 216.106,740.703 280,797 C372.564,878.559 514.161,916.441 601.701,932.948 " fill="none" style="stroke: #4F4F4F; stroke-width: 1.0;"/><polygon fill="#4F4F4F" points="606.868,933.909,598.7513,928.3306,601.9523,932.9946,597.2883,936.1957,606.868,933.909" style="stroke: #4F4F4F; stroke-width: 1.0;"/><text fill="#000000" font-family="Open Sans" font-size="9" font-weight="bold" lengthAdjust="spacingAndGlyphs" textLength="5" x="150.4341" y="604.9913">1</text><text fill="#000000" font-family="Open Sans" font-size="9" font-weight="bold" lengthAdjust="spacingAndGlyphs" textLength="5" x="594.0685" y="929.7194">1</text><path d="M227.011,185.395 C243.885,204.104 260.428,224.446 274,245 C314.971,307.046 347.559,385.395 368.376,442.578 " fill="none" style="stroke: #4F4F4F; stroke-width: 1.0;"/><polygon fill="#4F4F4F" points="370.104,447.349,370.8,437.5248,368.4013,442.6479,363.2781,440.2492,370.104,447.349" style="stroke: #4F4F4F; stroke-width: 1.0;"/><text fill="#000000" font-family="Open Sans" font-size="9" font-weight="bold" lengthAdjust="spacingAndGlyphs" textLength="5" x="227.3408" y="202.877">1</text><text fill="#000000" font-family="Open Sans" font-size="9" font-weight="bold" lengthAdjust="spacingAndGlyphs" textLength="16" x="350.8147" y="436.7574">1..*</text><path d="M490.648,521 C500.661,521 510.674,521 520.686,521 " fill="none" style="stroke: #4F4F4F; stroke-width: 1.0;"/><polygon fill="#4F4F4F" points="525.922,521,516.922,517,520.922,521,516.922,525,525.922,521" style="stroke: #4F4F4F; stroke-width: 1.0;"/><text fill="#000000" font-family="Open Sans" font-size="9" font-weight="bold" lengthAdjust="spacingAndGlyphs" textLength="5" x="498.6285" y="518.1437">1</text><text fill="#000000" font-family="Open Sans" font-size="9" font-weight="bold" lengthAdjust="spacingAndGlyphs" textLength="16" x="501.9793" y="517.7395">0..*</text><path d="M745.62,140.083 C725.831,155.685 702.236,172.551 679,185 C608.005,223.037 566.511,189.651 508,245 C456.727,293.502 427.716,368.514 411.807,427.949 " fill="none" style="stroke: #4F4F4F; stroke-width: 1.0;"/><polygon fill="none" points="418.569,429.76,406.901,447.448,404.993,426.344,418.569,429.76" style="stroke: #4F4F4F; stroke-width: 1.0;"/><path d="M765.589,140.202 C747.755,168.557 726.481,207.361 716,245 C657.307,455.787 663.337,715.837 672.101,851.762 " fill="none" style="stroke: #4F4F4F; stroke-width: 1.0;"/><polygon fill="#4F4F4F" points="672.441,856.944,675.8437,847.7016,672.1139,851.9547,667.8608,848.225,672.441,856.944" style="stroke: #4F4F4F; stroke-width: 1.0;"/><text fill="#000000" font-family="Open Sans" font-size="9" font-weight="bold" lengthAdjust="spacingAndGlyphs" textLength="5" x="753.1381" y="158.0514">1</text><text fill="#000000" font-family="Open Sans" font-size="9" font-weight="bold" lengthAdjust="spacingAndGlyphs" textLength="16" x="655.1039" y="846.4418">1..*</text><path d="M794.696,140.337 C794.513,166.036 794.264,201.171 793.99,239.756 " fill="none" style="stroke: #4F4F4F; stroke-width: 1.0;"/><polygon fill="#4F4F4F" points="793.953,244.973,798.0172,236.0018,793.9887,239.9731,790.0174,235.9447,793.953,244.973" style="stroke: #4F4F4F; stroke-width: 1.0;"/><text fill="#000000" font-family="Open Sans" font-size="9" font-weight="bold" lengthAdjust="spacingAndGlyphs" textLength="5" x="787.0897" y="157.8974">1</text><text fill="#000000" font-family="Open Sans" font-size="9" font-weight="bold" lengthAdjust="spacingAndGlyphs" textLength="5" x="788.9368" y="234.2288">1</text><path d="M816.22,140.034 C830.86,169.464 850.724,209.557 868,245 C903.547,317.926 943.819,402.049 970.432,457.854 " fill="none" style="stroke: #4F4F4F; stroke-width: 1.0;"/><polygon fill="#4F4F4F" points="972.644,462.492,972.3817,452.6466,970.4923,457.9786,965.1603,456.0893,972.644,462.492" style="stroke: #4F4F4F; stroke-width: 1.0;"/><text fill="#000000" font-family="Open Sans" font-size="9" font-weight="bold" lengthAdjust="spacingAndGlyphs" textLength="5" x="812.1549" y="157.8556">1</text><text fill="#000000" font-family="Open Sans" font-size="9" font-weight="bold" lengthAdjust="spacingAndGlyphs" textLength="16" x="952.114" y="451.8475">1..*</text><path d="M981.11,579.764 C959.948,638.603 921.465,730.413 868,797 C837.176,835.39 794.528,869.885 757.644,895.846 " fill="none" style="stroke: #4F4F4F; stroke-width: 1.0;"/><polygon fill="#4F4F4F" points="753.176,898.969,762.8444,897.0922,757.2744,896.1049,758.2618,890.5348,753.176,898.969" style="stroke: #4F4F4F; stroke-width: 1.0;"/><text fill="#000000" font-family="Open Sans" font-size="9" font-weight="bold" lengthAdjust="spacingAndGlyphs" textLength="5" x="971.3812" y="597.2776">1</text><text fill="#000000" font-family="Open Sans" font-size="9" font-weight="bold" lengthAdjust="spacingAndGlyphs" textLength="16" x="760.9131" y="891.5863">0..*</text><path d="M1000,579.861 C1000,664.007 1000,818.598 1000,896.682 " fill="none" style="stroke: #4F4F4F; stroke-width: 1.0;"/><polygon fill="#4F4F4F" points="1000,901.713,1004,892.713,1000,896.713,996,892.713,1000,901.713" style="stroke: #4F4F4F; stroke-width: 1.0;"/><text fill="#000000" font-family="Open Sans" font-size="9" font-weight="bold" lengthAdjust="spacingAndGlyphs" textLength="5" x="992.5734" y="597.3865">1</text><text fill="#000000" font-family="Open Sans" font-size="9" font-weight="bold" lengthAdjust="spacingAndGlyphs" textLength="16" x="982.725" y="891.3958">1..*</text><path d="M381.853,125.221 C383.707,185.489 388.177,330.767 391.147,427.267 " fill="none" style="stroke: #4F4F4F; stroke-width: 1.0;"/><polygon fill="none" points="398.147,427.164,391.765,447.37,384.153,427.594,398.147,427.164" style="stroke: #4F4F4F; stroke-width: 1.0;"/><path d="M565.818,125.262 C550.913,154.732 527.031,202.786 508,245 C480.651,305.664 451.975,374.869 430.225,428.679 " fill="none" style="stroke: #4F4F4F; stroke-width: 1.0;"/><polygon fill="none" points="436.652,431.459,422.688,447.396,423.666,426.229,436.652,431.459" style="stroke: #4F4F4F; stroke-width: 1.0;"/></g></svg>