<?xml version="1.0" encoding="UTF-8" standalone="yes"?><svg xmlns="http://www.w3.org/2000/svg" xmlns:xlink="http://www.w3.org/1999/xlink" height="1114px" style="width:921px;height:1114px;" version="1.1" viewBox="0 0 921 1114" width="921px"><defs><filter height="300%" id="f1" width="300%" x="-1" y="-1"><feGaussianBlur result="blurOut" stdDeviation="2.0"/><feColorMatrix in="blurOut" result="blurOut2" type="matrix" values="0 0 0 0 0 0 0 0 0 0 0 0 0 0 0 0 0 0 .4 0"/><feOffset dx="4.0" dy="4.0" in="blurOut2" result="blurOut3"/><feBlend in="SourceGraphic" in2="blurOut3" mode="normal"/></filter></defs><g><rect fill="#EFFFEF" filter="url(#f1)" height="132.2217" style="stroke: #0F0F0F; stroke-width: 1.5;" width="284" x="6" y="8"/><rect fill="#EFFFEF" height="26.3418" style="stroke: #0F0F0F; stroke-width: 1.5;" width="284" x="6" y="8"/><text fill="#000000" font-family="Open Sans" font-size="12" lengthAdjust="spacingAndGlyphs" textLength="63" x="116.5" y="25.8262">Lodgement</text><line style="stroke: #0F0F0F; stroke-width: 1.5;" x1="7" x2="289" y1="34.3418" y2="34.3418"/><text fill="#000000" font-family="Open Sans" font-size="11" lengthAdjust="spacingAndGlyphs" textLength="101" x="12" y="50.0991">LodgementNumber</text><text fill="#000000" font-family="Open Sans" font-size="11" lengthAdjust="spacingAndGlyphs" textLength="272" x="12" y="65.0791">ElectronicLodgementCase: ElectronicLodgementCase</text><text fill="#000000" font-family="Open Sans" font-size="11" lengthAdjust="spacingAndGlyphs" textLength="129" x="12" y="80.0591">LodgedByCustomerCode</text><text fill="#000000" font-family="Open Sans" font-size="11" lengthAdjust="spacingAndGlyphs" textLength="63" x="12" y="95.0391">LodgedDate</text><text fill="#000000" font-family="Open Sans" font-size="11" lengthAdjust="spacingAndGlyphs" textLength="91" x="12" y="110.019">LodgementStatus</text><text fill="#000000" font-family="Open Sans" font-size="11" lengthAdjust="spacingAndGlyphs" textLength="59" x="12" y="124.999">Cases: Case</text><line style="stroke: #0F0F0F; stroke-width: 1.5;" x1="7" x2="289" y1="132.2217" y2="132.2217"/><rect fill="#EFF1FF" filter="url(#f1)" height="57.3218" style="stroke: #0F0F0F; stroke-width: 1.5;" width="101" x="111.5" y="207.5"/><rect fill="#EFF1FF" height="26.3418" style="stroke: #0F0F0F; stroke-width: 1.5;" width="101" x="111.5" y="207.5"/><text fill="#000000" font-family="Open Sans" font-size="12" lengthAdjust="spacingAndGlyphs" textLength="28" x="148" y="225.3262">Case</text><line style="stroke: #0F0F0F; stroke-width: 1.5;" x1="112.5" x2="211.5" y1="233.8418" y2="233.8418"/><text fill="#000000" font-family="Open Sans" font-size="11" lengthAdjust="spacingAndGlyphs" textLength="89" x="117.5" y="249.5991">Dealings: Dealing</text><line style="stroke: #0F0F0F; stroke-width: 1.5;" x1="112.5" x2="211.5" y1="256.8218" y2="256.8218"/><rect fill="#EFF1FF" filter="url(#f1)" height="162.1816" style="stroke: #0F0F0F; stroke-width: 1.5;" width="153" x="293.5" y="332"/><rect fill="#EFF1FF" height="26.3418" style="stroke: #0F0F0F; stroke-width: 1.5;" width="153" x="293.5" y="332"/><text fill="#000000" font-family="Open Sans" font-size="12" lengthAdjust="spacingAndGlyphs" textLength="43" x="348.5" y="349.8262">Dealing</text><line style="stroke: #0F0F0F; stroke-width: 1.5;" x1="294.5" x2="445.5" y1="358.3418" y2="358.3418"/><text fill="#000000" font-family="Open Sans" font-size="11" lengthAdjust="spacingAndGlyphs" textLength="81" x="299.5" y="374.0991">DealingNumber</text><text fill="#000000" font-family="Open Sans" font-size="11" lengthAdjust="spacingAndGlyphs" textLength="64" x="299.5" y="389.0791">DealingType</text><text fill="#000000" font-family="Open Sans" font-size="11" lengthAdjust="spacingAndGlyphs" textLength="141" x="299.5" y="404.0591">DealingFolios: DealingFolio</text><text fill="#000000" font-family="Open Sans" font-size="11" lengthAdjust="spacingAndGlyphs" textLength="71" x="299.5" y="419.0391">DealingStatus</text><text fill="#000000" font-family="Open Sans" font-size="11" lengthAdjust="spacingAndGlyphs" textLength="83" x="299.5" y="434.019">LodgementDate</text><text fill="#000000" font-family="Open Sans" font-size="11" lengthAdjust="spacingAndGlyphs" textLength="133" x="299.5" y="448.999">DealingStatusUpdateDate</text><text fill="#000000" font-family="Open Sans" font-size="11" lengthAdjust="spacingAndGlyphs" textLength="125" x="299.5" y="463.979">DealingFees: DealingFee</text><text fill="#000000" font-family="Open Sans" font-size="11" lengthAdjust="spacingAndGlyphs" textLength="120" x="299.5" y="478.959">Instrument: Instrument</text><line style="stroke: #0F0F0F; stroke-width: 1.5;" x1="294.5" x2="445.5" y1="486.1816" y2="486.1816"/><rect fill="#EFF1FF" filter="url(#f1)" height="117.2417" style="stroke: #0F0F0F; stroke-width: 1.5;" width="105" x="210.5" y="771.5"/><rect fill="#EFF1FF" height="26.3418" style="stroke: #0F0F0F; stroke-width: 1.5;" width="105" x="210.5" y="771.5"/><text fill="#000000" font-family="Open Sans" font-size="12" lengthAdjust="spacingAndGlyphs" textLength="69" x="228.5" y="789.3262">DealingFolio</text><line style="stroke: #0F0F0F; stroke-width: 1.5;" x1="211.5" x2="314.5" y1="797.8418" y2="797.8418"/><text fill="#000000" font-family="Open Sans" font-size="11" lengthAdjust="spacingAndGlyphs" textLength="26" x="216.5" y="813.5991">Folio</text><text fill="#000000" font-family="Open Sans" font-size="11" lengthAdjust="spacingAndGlyphs" textLength="46" x="216.5" y="828.5791">AsToPart</text><text fill="#000000" font-family="Open Sans" font-size="11" lengthAdjust="spacingAndGlyphs" textLength="38" x="216.5" y="843.5591">CTType</text><text fill="#000000" font-family="Open Sans" font-size="11" lengthAdjust="spacingAndGlyphs" textLength="64" x="216.5" y="858.5391">ControlType</text><text fill="#000000" font-family="Open Sans" font-size="11" lengthAdjust="spacingAndGlyphs" textLength="93" x="216.5" y="873.519">ControlPartyCode</text><line style="stroke: #0F0F0F; stroke-width: 1.5;" x1="211.5" x2="314.5" y1="880.7417" y2="880.7417"/><rect fill="#EFF1FF" filter="url(#f1)" height="87.2817" style="stroke: #0F0F0F; stroke-width: 1.5;" width="72" x="351" y="786.5"/><rect fill="#EFF1FF" height="26.3418" style="stroke: #0F0F0F; stroke-width: 1.5;" width="72" x="351" y="786.5"/><text fill="#000000" font-family="Open Sans" font-size="12" lengthAdjust="spacingAndGlyphs" textLength="63" x="355.5" y="804.3262">DealingFee</text><line style="stroke: #0F0F0F; stroke-width: 1.5;" x1="352" x2="422" y1="812.8418" y2="812.8418"/><text fill="#000000" font-family="Open Sans" font-size="11" lengthAdjust="spacingAndGlyphs" textLength="43" x="357" y="828.5991">FeeType</text><text fill="#000000" font-family="Open Sans" font-size="11" lengthAdjust="spacingAndGlyphs" textLength="46" x="357" y="843.5791">Quantity</text><text fill="#000000" font-family="Open Sans" font-size="11" lengthAdjust="spacingAndGlyphs" textLength="60" x="357" y="858.5591">FeeAmount</text><line style="stroke: #0F0F0F; stroke-width: 1.5;" x1="352" x2="422" y1="865.7817" y2="865.7817"/><rect fill="#EFF1FF" filter="url(#f1)" height="87.2817" style="stroke: #0F0F0F; stroke-width: 1.5;" width="167" x="481.5" y="369.5"/><rect fill="#EFF1FF" height="26.3418" style="stroke: #0F0F0F; stroke-width: 1.5;" width="167" x="481.5" y="369.5"/><text fill="#000000" font-family="Open Sans" font-size="12" lengthAdjust="spacingAndGlyphs" textLength="120" x="505" y="387.3262">EncumbranceDealing</text><line style="stroke: #0F0F0F; stroke-width: 1.5;" x1="482.5" x2="647.5" y1="395.8418" y2="395.8418"/><text fill="#000000" font-family="Open Sans" font-size="11" lengthAdjust="spacingAndGlyphs" textLength="138" x="487.5" y="411.5991">EncumbranceParties: Party</text><text fill="#000000" font-family="Open Sans" font-size="11" lengthAdjust="spacingAndGlyphs" textLength="155" x="487.5" y="426.5791">ServiceOfNoticeContact: Party</text><text fill="#000000" font-family="Open Sans" font-size="11" lengthAdjust="spacingAndGlyphs" textLength="123" x="487.5" y="441.5591">ServiceOfNoticeAddress</text><line style="stroke: #0F0F0F; stroke-width: 1.5;" x1="482.5" x2="647.5" y1="448.7817" y2="448.7817"/><rect fill="#EFF1FF" filter="url(#f1)" height="57.3218" style="stroke: #0F0F0F; stroke-width: 1.5;" width="187" x="276.5" y="207.5"/><rect fill="#EFF1FF" height="26.3418" style="stroke: #0F0F0F; stroke-width: 1.5;" width="187" x="276.5" y="207.5"/><text fill="#000000" font-family="Open Sans" font-size="12" lengthAdjust="spacingAndGlyphs" textLength="181" x="279.5" y="225.3262">EncumbranceOnEnmcumbrance</text><line style="stroke: #0F0F0F; stroke-width: 1.5;" x1="277.5" x2="462.5" y1="233.8418" y2="233.8418"/><text fill="#000000" font-family="Open Sans" font-size="11" lengthAdjust="spacingAndGlyphs" textLength="124" x="282.5" y="249.5991">AffectedDealingNumber</text><line style="stroke: #0F0F0F; stroke-width: 1.5;" x1="277.5" x2="462.5" y1="256.8218" y2="256.8218"/><rect fill="#EFF1FF" filter="url(#f1)" height="177.1616" style="stroke: #0F0F0F; stroke-width: 1.5;" width="146" x="627" y="741.5"/><rect fill="#EFF1FF" height="26.3418" style="stroke: #0F0F0F; stroke-width: 1.5;" width="146" x="627" y="741.5"/><text fill="#000000" font-family="Open Sans" font-size="12" lengthAdjust="spacingAndGlyphs" textLength="29" x="685.5" y="759.3262">Party</text><line style="stroke: #0F0F0F; stroke-width: 1.5;" x1="628" x2="772" y1="767.8418" y2="767.8418"/><text fill="#000000" font-family="Open Sans" font-size="11" lengthAdjust="spacingAndGlyphs" textLength="52" x="633" y="783.5991">PartyType</text><text fill="#000000" font-family="Open Sans" font-size="11" lengthAdjust="spacingAndGlyphs" textLength="66" x="633" y="798.5791">GivenName1</text><text fill="#000000" font-family="Open Sans" font-size="11" lengthAdjust="spacingAndGlyphs" textLength="66" x="633" y="813.5591">GivenName2</text><text fill="#000000" font-family="Open Sans" font-size="11" lengthAdjust="spacingAndGlyphs" textLength="95" x="633" y="828.5391">GivenNameOthers</text><text fill="#000000" font-family="Open Sans" font-size="11" lengthAdjust="spacingAndGlyphs" textLength="96" x="633" y="843.519">SurnameCompany</text><text fill="#000000" font-family="Open Sans" font-size="11" lengthAdjust="spacingAndGlyphs" textLength="41" x="633" y="858.499">Address</text><text fill="#000000" font-family="Open Sans" font-size="11" lengthAdjust="spacingAndGlyphs" textLength="83" x="633" y="873.479">ACN_ABN_ARBN</text><text fill="#000000" font-family="Open Sans" font-size="11" lengthAdjust="spacingAndGlyphs" textLength="134" x="633" y="888.459">OrganisationNumberType</text><text fill="#000000" font-family="Open Sans" font-size="11" lengthAdjust="spacingAndGlyphs" textLength="129" x="633" y="903.439">GovernmentProprietorID</text><line style="stroke: #0F0F0F; stroke-width: 1.5;" x1="628" x2="772" y1="910.6616" y2="910.6616"/><rect fill="#EFF1FF" filter="url(#f1)" height="551.6611" style="stroke: #0F0F0F; stroke-width: 1.5;" width="117" x="474.5" y="554"/><rect fill="#EFF1FF" height="26.3418" style="stroke: #0F0F0F; stroke-width: 1.5;" width="117" x="474.5" y="554"/><text fill="#000000" font-family="Open Sans" font-size="12" lengthAdjust="spacingAndGlyphs" textLength="46" x="510" y="571.8262">Address</text><line style="stroke: #0F0F0F; stroke-width: 1.5;" x1="475.5" x2="590.5" y1="580.3418" y2="580.3418"/><text fill="#000000" font-family="Open Sans" font-size="11" lengthAdjust="spacingAndGlyphs" textLength="66" x="480.5" y="596.0991">AddressType</text><text fill="#000000" font-family="Open Sans" font-size="11" lengthAdjust="spacingAndGlyphs" textLength="81" x="480.5" y="611.0791">PropertyName1</text><text fill="#000000" font-family="Open Sans" font-size="11" lengthAdjust="spacingAndGlyphs" textLength="81" x="480.5" y="626.0591">PropertyName2</text><text fill="#000000" font-family="Open Sans" font-size="11" lengthAdjust="spacingAndGlyphs" textLength="52" x="480.5" y="641.0391">FloorType</text><text fill="#000000" font-family="Open Sans" font-size="11" lengthAdjust="spacingAndGlyphs" textLength="42" x="480.5" y="656.019">FloorNo</text><text fill="#000000" font-family="Open Sans" font-size="11" lengthAdjust="spacingAndGlyphs" textLength="72" x="480.5" y="670.999">FloorNoSuffix</text><text fill="#000000" font-family="Open Sans" font-size="11" lengthAdjust="spacingAndGlyphs" textLength="47" x="480.5" y="685.979">UnitType</text><text fill="#000000" font-family="Open Sans" font-size="11" lengthAdjust="spacingAndGlyphs" textLength="64" x="480.5" y="700.959">UnitNoFrom</text><text fill="#000000" font-family="Open Sans" font-size="11" lengthAdjust="spacingAndGlyphs" textLength="94" x="480.5" y="715.939">UnitNoFromSuffix</text><text fill="#000000" font-family="Open Sans" font-size="11" lengthAdjust="spacingAndGlyphs" textLength="50" x="480.5" y="730.9189">UnitNoTo</text><text fill="#000000" font-family="Open Sans" font-size="11" lengthAdjust="spacingAndGlyphs" textLength="80" x="480.5" y="745.8989">UnitNoToSuffix</text><text fill="#000000" font-family="Open Sans" font-size="11" lengthAdjust="spacingAndGlyphs" textLength="72" x="480.5" y="760.8789">StreetNoFrom</text><text fill="#000000" font-family="Open Sans" font-size="11" lengthAdjust="spacingAndGlyphs" textLength="105" x="480.5" y="775.8589">StreetNoFrom Suffix</text><text fill="#000000" font-family="Open Sans" font-size="11" lengthAdjust="spacingAndGlyphs" textLength="58" x="480.5" y="790.8389">StreetNoTo</text><text fill="#000000" font-family="Open Sans" font-size="11" lengthAdjust="spacingAndGlyphs" textLength="88" x="480.5" y="805.8188">StreetNoToSuffix</text><text fill="#000000" font-family="Open Sans" font-size="11" lengthAdjust="spacingAndGlyphs" textLength="66" x="480.5" y="820.7988">StreetName1</text><text fill="#000000" font-family="Open Sans" font-size="11" lengthAdjust="spacingAndGlyphs" textLength="61" x="480.5" y="835.7788">StreetType1</text><text fill="#000000" font-family="Open Sans" font-size="11" lengthAdjust="spacingAndGlyphs" textLength="66" x="480.5" y="850.7588">StreetSuffix1</text><text fill="#000000" font-family="Open Sans" font-size="11" lengthAdjust="spacingAndGlyphs" textLength="66" x="480.5" y="865.7388">StreetName2</text><text fill="#000000" font-family="Open Sans" font-size="11" lengthAdjust="spacingAndGlyphs" textLength="61" x="480.5" y="880.7188">StreetType2</text><text fill="#000000" font-family="Open Sans" font-size="11" lengthAdjust="spacingAndGlyphs" textLength="66" x="480.5" y="895.6987">StreetSuffix2</text><text fill="#000000" font-family="Open Sans" font-size="11" lengthAdjust="spacingAndGlyphs" textLength="40" x="480.5" y="910.6787">Locality</text><text fill="#000000" font-family="Open Sans" font-size="11" lengthAdjust="spacingAndGlyphs" textLength="26" x="480.5" y="925.6587">State</text><text fill="#000000" font-family="Open Sans" font-size="11" lengthAdjust="spacingAndGlyphs" textLength="42" x="480.5" y="940.6387">Country</text><text fill="#000000" font-family="Open Sans" font-size="11" lengthAdjust="spacingAndGlyphs" textLength="50" x="480.5" y="955.6187">PostCode</text><text fill="#000000" font-family="Open Sans" font-size="11" lengthAdjust="spacingAndGlyphs" textLength="98" x="480.5" y="970.5986">PostalAddressType</text><text fill="#000000" font-family="Open Sans" font-size="11" lengthAdjust="spacingAndGlyphs" textLength="88" x="480.5" y="985.5786">PostalAddressNo</text><text fill="#000000" font-family="Open Sans" font-size="11" lengthAdjust="spacingAndGlyphs" textLength="91" x="480.5" y="1000.5586">TextAddressLine1</text><text fill="#000000" font-family="Open Sans" font-size="11" lengthAdjust="spacingAndGlyphs" textLength="91" x="480.5" y="1015.5386">TextAddressLine2</text><text fill="#000000" font-family="Open Sans" font-size="11" lengthAdjust="spacingAndGlyphs" textLength="91" x="480.5" y="1030.5186">TextAddressLine3</text><text fill="#000000" font-family="Open Sans" font-size="11" lengthAdjust="spacingAndGlyphs" textLength="91" x="480.5" y="1045.4985">TextAddressLine4</text><text fill="#000000" font-family="Open Sans" font-size="11" lengthAdjust="spacingAndGlyphs" textLength="97" x="480.5" y="1060.4785">DXAddressNumber</text><text fill="#000000" font-family="Open Sans" font-size="11" lengthAdjust="spacingAndGlyphs" textLength="100" x="480.5" y="1075.4585">DXAddressLocation</text><text fill="#000000" font-family="Open Sans" font-size="11" lengthAdjust="spacingAndGlyphs" textLength="69" x="480.5" y="1090.4385">EmailAddress</text><line style="stroke: #0F0F0F; stroke-width: 1.5;" x1="475.5" x2="590.5" y1="1097.6611" y2="1097.6611"/><rect fill="#FFF0EF" filter="url(#f1)" height="72.3018" style="stroke: #0F0F0F; stroke-width: 1.5;" width="195" x="699.5" y="200"/><rect fill="#FFF0EF" height="26.3418" style="stroke: #0F0F0F; stroke-width: 1.5;" width="195" x="699.5" y="200"/><text fill="#000000" font-family="Open Sans" font-size="12" lengthAdjust="spacingAndGlyphs" textLength="76" x="759" y="217.8262">PriorityNotice</text><line style="stroke: #0F0F0F; stroke-width: 1.5;" x1="700.5" x2="893.5" y1="226.3418" y2="226.3418"/><text fill="#000000" font-family="Open Sans" font-size="11" lengthAdjust="spacingAndGlyphs" textLength="183" x="705.5" y="242.0991">IntendedDealings: IntendedDealing</text><text fill="#000000" font-family="Open Sans" font-size="11" lengthAdjust="spacingAndGlyphs" textLength="56" x="705.5" y="257.0791">ExpiryDate</text><line style="stroke: #0F0F0F; stroke-width: 1.5;" x1="700.5" x2="893.5" y1="264.3018" y2="264.3018"/><rect fill="#FFEFF8" filter="url(#f1)" height="57.3218" style="stroke: #0F0F0F; stroke-width: 1.5;" width="164" x="499" y="207.5"/><rect fill="#FFEFF8" height="26.3418" style="stroke: #0F0F0F; stroke-width: 1.5;" width="164" x="499" y="207.5"/><text fill="#000000" font-family="Open Sans" font-size="12" lengthAdjust="spacingAndGlyphs" textLength="129" x="516.5" y="225.3262">WithdrawPriorityNotice</text><line style="stroke: #0F0F0F; stroke-width: 1.5;" x1="500" x2="662" y1="233.8418" y2="233.8418"/><text fill="#000000" font-family="Open Sans" font-size="11" lengthAdjust="spacingAndGlyphs" textLength="152" x="505" y="249.5991">PriorityNoticeDealingNumber</text><line style="stroke: #0F0F0F; stroke-width: 1.5;" x1="500" x2="662" y1="256.8218" y2="256.8218"/><rect fill="#F8EFFF" filter="url(#f1)" height="57.3218" style="stroke: #0F0F0F; stroke-width: 1.5;" width="120" x="325" y="45.5"/><rect fill="#F8EFFF" height="26.3418" style="stroke: #0F0F0F; stroke-width: 1.5;" width="120" x="325" y="45.5"/><text fill="#000000" font-family="Open Sans" font-size="12" lengthAdjust="spacingAndGlyphs" textLength="114" x="328" y="63.3262">ExtendPriorityNotice</text><line style="stroke: #0F0F0F; stroke-width: 1.5;" x1="326" x2="444" y1="71.8418" y2="71.8418"/><text fill="#000000" font-family="Open Sans" font-size="11" lengthAdjust="spacingAndGlyphs" textLength="79" x="331" y="87.5991">NewExpiryDate</text><line style="stroke: #0F0F0F; stroke-width: 1.5;" x1="326" x2="444" y1="94.8218" y2="94.8218"/><rect fill="#FFF0EF" filter="url(#f1)" height="117.2417" style="stroke: #0F0F0F; stroke-width: 1.5;" width="228" x="684" y="354.5"/><rect fill="#FFF0EF" height="26.3418" style="stroke: #0F0F0F; stroke-width: 1.5;" width="228" x="684" y="354.5"/><text fill="#000000" font-family="Open Sans" font-size="12" lengthAdjust="spacingAndGlyphs" textLength="92" x="752" y="372.3262">IntendedDealing</text><line style="stroke: #0F0F0F; stroke-width: 1.5;" x1="685" x2="911" y1="380.8418" y2="380.8418"/><text fill="#000000" font-family="Open Sans" font-size="11" lengthAdjust="spacingAndGlyphs" textLength="89" x="690" y="396.5991">DealingSequence</text><text fill="#000000" font-family="Open Sans" font-size="11" lengthAdjust="spacingAndGlyphs" textLength="79" x="690" y="411.5791">DocumentType</text><text fill="#000000" font-family="Open Sans" font-size="11" lengthAdjust="spacingAndGlyphs" textLength="216" x="690" y="426.5591">AffectedDealingNumbers: DealingNumber</text><text fill="#000000" font-family="Open Sans" font-size="11" lengthAdjust="spacingAndGlyphs" textLength="208" x="690" y="441.5391">AffectedLandReferences: LandReference</text><text fill="#000000" font-family="Open Sans" font-size="11" lengthAdjust="spacingAndGlyphs" textLength="117" x="690" y="456.519">PartiesReceiving: Party</text><line style="stroke: #0F0F0F; stroke-width: 1.5;" x1="685" x2="911" y1="463.7417" y2="463.7417"/><rect fill="#FFF0EF" filter="url(#f1)" height="102.2617" style="stroke: #0F0F0F; stroke-width: 1.5;" width="97" x="808.5" y="779"/><rect fill="#FFF0EF" height="26.3418" style="stroke: #0F0F0F; stroke-width: 1.5;" width="97" x="808.5" y="779"/><text fill="#000000" font-family="Open Sans" font-size="12" lengthAdjust="spacingAndGlyphs" textLength="84" x="815" y="796.8262">LandReference</text><line style="stroke: #0F0F0F; stroke-width: 1.5;" x1="809.5" x2="904.5" y1="805.3418" y2="805.3418"/><text fill="#000000" font-family="Open Sans" font-size="11" lengthAdjust="spacingAndGlyphs" textLength="26" x="814.5" y="821.0991">Folio</text><text fill="#000000" font-family="Open Sans" font-size="11" lengthAdjust="spacingAndGlyphs" textLength="46" x="814.5" y="836.0791">AsToPart</text><text fill="#000000" font-family="Open Sans" font-size="11" lengthAdjust="spacingAndGlyphs" textLength="85" x="814.5" y="851.0591">LandDescription</text><text fill="#000000" font-family="Open Sans" font-size="11" lengthAdjust="spacingAndGlyphs" textLength="16" x="814.5" y="866.0391">SPI</text><line style="stroke: #0F0F0F; stroke-width: 1.5;" x1="809.5" x2="904.5" y1="873.2617" y2="873.2617"/><path d="M153.694,140.078 C155.56,161.405 157.555,184.198 159.121,202.102 " fill="none" style="stroke: #2F2F2F; stroke-width: 1.0;"/><polygon fill="#2F2F2F" points="159.593,207.495,162.7909,198.1798,159.1559,202.5141,154.8215,198.8791,159.593,207.495" style="stroke: #2F2F2F; stroke-width: 1.0;"/><text fill="#000000" font-family="Open Sans" font-size="9" font-weight="bold" lengthAdjust="spacingAndGlyphs" textLength="5" x="146.9477" y="158.0337">1</text><text fill="#000000" font-family="Open Sans" font-size="9" font-weight="bold" lengthAdjust="spacingAndGlyphs" textLength="16" x="141.0563" y="196.6961">1..*</text><path d="M194.958,264.729 C220.276,286.03 256.353,316.384 289.183,344.005 " fill="none" style="stroke: #2F2F2F; stroke-width: 1.0;"/><polygon fill="#2F2F2F" points="293.169,347.359,288.8572,338.5042,289.3429,344.1401,283.707,344.6259,293.169,347.359" style="stroke: #2F2F2F; stroke-width: 1.0;"/><text fill="#000000" font-family="Open Sans" font-size="9" font-weight="bold" lengthAdjust="spacingAndGlyphs" textLength="5" x="194.7702" y="282.3721">1</text><text fill="#000000" font-family="Open Sans" font-size="9" font-weight="bold" lengthAdjust="spacingAndGlyphs" textLength="16" x="269.6137" y="338.6014">1..*</text><path d="M348.645,494.293 C343.488,513.822 338.019,534.654 333,554 C314.117,626.791 292.866,710.547 278.783,766.313 " fill="none" style="stroke: #2F2F2F; stroke-width: 1.0;"/><polygon fill="#2F2F2F" points="277.528,771.285,283.6081,763.5369,278.7511,766.4369,275.8511,761.5799,277.528,771.285" style="stroke: #2F2F2F; stroke-width: 1.0;"/><text fill="#000000" font-family="Open Sans" font-size="9" font-weight="bold" lengthAdjust="spacingAndGlyphs" textLength="5" x="339.4314" y="511.6905">1</text><text fill="#000000" font-family="Open Sans" font-size="9" font-weight="bold" lengthAdjust="spacingAndGlyphs" textLength="16" x="262.3236" y="761.0184">1..*</text><path d="M373.278,494.016 C376.762,579.066 382.157,710.77 385.034,781.018 " fill="none" style="stroke: #2F2F2F; stroke-width: 1.0;"/><polygon fill="#2F2F2F" points="385.254,786.381,388.8803,777.224,385.0483,781.3852,380.8871,777.5532,385.254,786.381" style="stroke: #2F2F2F; stroke-width: 1.0;"/><text fill="#000000" font-family="Open Sans" font-size="9" font-weight="bold" lengthAdjust="spacingAndGlyphs" textLength="5" x="366.2568" y="511.9329">1</text><text fill="#000000" font-family="Open Sans" font-size="9" font-weight="bold" lengthAdjust="spacingAndGlyphs" textLength="16" x="367.6398" y="775.7804">1..*</text><path d="M546.529,264.644 C523.135,283.488 491.565,309.084 464,332 C463.378,332.517 462.754,333.036 462.128,333.557 " fill="none" style="stroke: #2F2F2F; stroke-width: 1.0;"/><polygon fill="none" points="466.399,339.111,446.57,346.582,457.412,328.376,466.399,339.111" style="stroke: #2F2F2F; stroke-width: 1.0;"/><path d="M466.614,413 C471.494,413 476.374,413 481.254,413 " fill="none" style="stroke: #2F2F2F; stroke-width: 1.0;"/><polygon fill="none" points="466.553,420,446.553,413,466.553,406,466.553,420" style="stroke: #2F2F2F; stroke-width: 1.0;"/><path d="M370,264.729 C370,277.893 370,294.513 370,311.81 " fill="none" style="stroke: #2F2F2F; stroke-width: 1.0;"/><polygon fill="none" points="377,311.865,370,331.865,363,311.865,377,311.865" style="stroke: #2F2F2F; stroke-width: 1.0;"/><path d="M382.421,102.5 C380.243,125.744 377.072,159.564 374.48,187.218 " fill="none" style="stroke: #2F2F2F; stroke-width: 1.0;"/><polygon fill="none" points="381.431,188.059,372.595,207.318,367.493,186.752,381.431,188.059" style="stroke: #2F2F2F; stroke-width: 1.0;"/><path d="M578.939,456.849 C600.262,522.398 641.487,649.126 669.858,736.341 " fill="none" style="stroke: #2F2F2F; stroke-width: 1.0;"/><polygon fill="#2F2F2F" points="671.453,741.245,672.4752,731.4493,669.9075,736.4899,664.8669,733.9222,671.453,741.245" style="stroke: #2F2F2F; stroke-width: 1.0;"/><text fill="#000000" font-family="Open Sans" font-size="9" font-weight="bold" lengthAdjust="spacingAndGlyphs" textLength="5" x="573.6027" y="474.4113">1</text><text fill="#000000" font-family="Open Sans" font-size="9" font-weight="bold" lengthAdjust="spacingAndGlyphs" textLength="16" x="652.3122" y="730.7257">1..*</text><path d="M596.922,830 C606.888,830 616.854,830 626.82,830 " fill="none" style="stroke: #2F2F2F; stroke-width: 1.0;"/><polygon fill="#2F2F2F" points="591.711,830,600.711,834,596.711,830,600.711,826,591.711,830" style="stroke: #2F2F2F; stroke-width: 1.0;"/><text fill="#000000" font-family="Open Sans" font-size="9" font-weight="bold" lengthAdjust="spacingAndGlyphs" textLength="16" x="599.4245" y="826.9603">0..*</text><text fill="#000000" font-family="Open Sans" font-size="9" font-weight="bold" lengthAdjust="spacingAndGlyphs" textLength="5" x="611.9124" y="827.0058">1</text><path d="M561.696,456.849 C559.847,480.832 557.366,513.004 554.634,548.434 " fill="none" style="stroke: #2F2F2F; stroke-width: 1.0;"/><polygon fill="#2F2F2F" points="554.229,553.684,558.909,545.0181,554.6134,548.6988,550.9327,544.4031,554.229,553.684" style="stroke: #2F2F2F; stroke-width: 1.0;"/><text fill="#000000" font-family="Open Sans" font-size="9" font-weight="bold" lengthAdjust="spacingAndGlyphs" textLength="5" x="553.6116" y="474.4113">1</text><text fill="#000000" font-family="Open Sans" font-size="9" font-weight="bold" lengthAdjust="spacingAndGlyphs" textLength="16" x="538.6217" y="542.9312">0..*</text><path d="M747.493,272.149 C722.821,289.856 692.642,311.803 666,332 C655.524,339.942 644.535,348.453 633.821,356.855 " fill="none" style="stroke: #2F2F2F; stroke-width: 1.0;"/><polygon fill="none" points="637.912,362.543,617.873,369.432,629.242,351.55,637.912,362.543" style="stroke: #2F2F2F; stroke-width: 1.0;"/><path d="M797.202,272.414 C797.328,294.417 797.493,323.33 797.641,349.132 " fill="none" style="stroke: #2F2F2F; stroke-width: 1.0;"/><polygon fill="#2F2F2F" points="797.67,354.248,801.6185,345.2253,797.6414,349.2481,793.6186,345.271,797.67,354.248" style="stroke: #2F2F2F; stroke-width: 1.0;"/><path d="M784.374,471.704 C768.214,540.134 741.064,655.106 721.934,736.115 " fill="none" style="stroke: #2F2F2F; stroke-width: 1.0;"/><polygon fill="#2F2F2F" points="720.686,741.401,726.6467,733.5607,721.8347,736.5347,718.8607,731.7228,720.686,741.401" style="stroke: #2F2F2F; stroke-width: 1.0;"/><text fill="#000000" font-family="Open Sans" font-size="9" font-weight="bold" lengthAdjust="spacingAndGlyphs" textLength="5" x="775.2868" y="489.2103">1</text><text fill="#000000" font-family="Open Sans" font-size="9" font-weight="bold" lengthAdjust="spacingAndGlyphs" textLength="16" x="705.7762" y="730.8951">0..*</text><path d="M806.204,471.704 C817.574,551.685 837.984,695.243 849.159,773.846 " fill="none" style="stroke: #2F2F2F; stroke-width: 1.0;"/><polygon fill="#2F2F2F" points="849.881,778.928,852.5734,769.4543,849.1767,773.9779,844.6531,770.5812,849.881,778.928" style="stroke: #2F2F2F; stroke-width: 1.0;"/><text fill="#000000" font-family="Open Sans" font-size="9" font-weight="bold" lengthAdjust="spacingAndGlyphs" textLength="5" x="799.7773" y="489.2103">1</text><text fill="#000000" font-family="Open Sans" font-size="9" font-weight="bold" lengthAdjust="spacingAndGlyphs" textLength="16" x="831.7549" y="768.5215">1..*</text></g></svg>