<?xml version="1.0" encoding="UTF-8" standalone="yes"?><svg xmlns="http://www.w3.org/2000/svg" xmlns:xlink="http://www.w3.org/1999/xlink" height="1184px" style="width:1389px;height:1184px;" version="1.1" viewBox="0 0 1389 1184" width="1389px"><defs><filter height="300%" id="f1" width="300%" x="-1" y="-1"><feGaussianBlur result="blurOut" stdDeviation="2.0"/><feColorMatrix in="blurOut" result="blurOut2" type="matrix" values="0 0 0 0 0 0 0 0 0 0 0 0 0 0 0 0 0 0 .4 0"/><feOffset dx="4.0" dy="4.0" in="blurOut2" result="blurOut3"/><feBlend in="SourceGraphic" in2="blurOut3" mode="normal"/></filter></defs><g><text fill="#000000" font-family="Open Sans" font-size="18" lengthAdjust="spacingAndGlyphs" textLength="183" x="607.5" y="19.2393">Electronic Lodgement</text><rect fill="#EFFFEF" filter="url(#f1)" height="132.2217" style="stroke: #0F0F0F; stroke-width: 1.5;" width="284" x="6" y="32.5127"/><rect fill="#EFFFEF" height="26.3418" style="stroke: #0F0F0F; stroke-width: 1.5;" width="284" x="6" y="32.5127"/><text fill="#000000" font-family="Open Sans" font-size="12" lengthAdjust="spacingAndGlyphs" textLength="63" x="116.5" y="50.3389">Lodgement</text><line style="stroke: #0F0F0F; stroke-width: 1.5;" x1="7" x2="289" y1="58.8545" y2="58.8545"/><text fill="#000000" font-family="Open Sans" font-size="11" lengthAdjust="spacingAndGlyphs" textLength="101" x="12" y="74.6118">LodgementNumber</text><text fill="#000000" font-family="Open Sans" font-size="11" lengthAdjust="spacingAndGlyphs" textLength="272" x="12" y="89.5918">ElectronicLodgementCase: ElectronicLodgementCase</text><text fill="#000000" font-family="Open Sans" font-size="11" lengthAdjust="spacingAndGlyphs" textLength="129" x="12" y="104.5718">LodgedByCustomerCode</text><text fill="#000000" font-family="Open Sans" font-size="11" lengthAdjust="spacingAndGlyphs" textLength="63" x="12" y="119.5518">LodgedDate</text><text fill="#000000" font-family="Open Sans" font-size="11" lengthAdjust="spacingAndGlyphs" textLength="91" x="12" y="134.5317">LodgementStatus</text><text fill="#000000" font-family="Open Sans" font-size="11" lengthAdjust="spacingAndGlyphs" textLength="59" x="12" y="149.5117">Cases: Case</text><line style="stroke: #0F0F0F; stroke-width: 1.5;" x1="7" x2="289" y1="156.7344" y2="156.7344"/><rect fill="#EFF1FF" filter="url(#f1)" height="57.3218" style="stroke: #0F0F0F; stroke-width: 1.5;" width="101" x="111.5" y="254.5127"/><rect fill="#EFF1FF" height="26.3418" style="stroke: #0F0F0F; stroke-width: 1.5;" width="101" x="111.5" y="254.5127"/><text fill="#000000" font-family="Open Sans" font-size="12" lengthAdjust="spacingAndGlyphs" textLength="28" x="148" y="272.3389">Case</text><line style="stroke: #0F0F0F; stroke-width: 1.5;" x1="112.5" x2="211.5" y1="280.8545" y2="280.8545"/><text fill="#000000" font-family="Open Sans" font-size="11" lengthAdjust="spacingAndGlyphs" textLength="89" x="117.5" y="296.6118">Dealings: Dealing</text><line style="stroke: #0F0F0F; stroke-width: 1.5;" x1="112.5" x2="211.5" y1="303.8345" y2="303.8345"/><rect fill="#EFF1FF" filter="url(#f1)" height="162.1816" style="stroke: #0F0F0F; stroke-width: 1.5;" width="151" x="399.5" y="401.5127"/><rect fill="#EFF1FF" height="26.3418" style="stroke: #0F0F0F; stroke-width: 1.5;" width="151" x="399.5" y="401.5127"/><text fill="#000000" font-family="Open Sans" font-size="12" lengthAdjust="spacingAndGlyphs" textLength="43" x="453.5" y="419.3389">Dealing</text><line style="stroke: #0F0F0F; stroke-width: 1.5;" x1="400.5" x2="549.5" y1="427.8545" y2="427.8545"/><text fill="#000000" font-family="Open Sans" font-size="11" lengthAdjust="spacingAndGlyphs" textLength="81" x="405.5" y="443.6118">DealingNumber</text><text fill="#000000" font-family="Open Sans" font-size="11" lengthAdjust="spacingAndGlyphs" textLength="64" x="405.5" y="458.5918">DealingType</text><text fill="#000000" font-family="Open Sans" font-size="11" lengthAdjust="spacingAndGlyphs" textLength="139" x="405.5" y="473.5718">DealinfFolios: DealingFolio</text><text fill="#000000" font-family="Open Sans" font-size="11" lengthAdjust="spacingAndGlyphs" textLength="71" x="405.5" y="488.5518">DealingStatus</text><text fill="#000000" font-family="Open Sans" font-size="11" lengthAdjust="spacingAndGlyphs" textLength="83" x="405.5" y="503.5317">LodgementDate</text><text fill="#000000" font-family="Open Sans" font-size="11" lengthAdjust="spacingAndGlyphs" textLength="133" x="405.5" y="518.5117">DealingStatusUpdateDate</text><text fill="#000000" font-family="Open Sans" font-size="11" lengthAdjust="spacingAndGlyphs" textLength="125" x="405.5" y="533.4917">DealingFees: DealingFee</text><text fill="#000000" font-family="Open Sans" font-size="11" lengthAdjust="spacingAndGlyphs" textLength="120" x="405.5" y="548.4717">Instrument: Instrument</text><line style="stroke: #0F0F0F; stroke-width: 1.5;" x1="400.5" x2="549.5" y1="555.6943" y2="555.6943"/><rect fill="#EFF1FF" filter="url(#f1)" height="117.2417" style="stroke: #0F0F0F; stroke-width: 1.5;" width="105" x="360.5" y="841.0127"/><rect fill="#EFF1FF" height="26.3418" style="stroke: #0F0F0F; stroke-width: 1.5;" width="105" x="360.5" y="841.0127"/><text fill="#000000" font-family="Open Sans" font-size="12" lengthAdjust="spacingAndGlyphs" textLength="69" x="378.5" y="858.8389">DealingFolio</text><line style="stroke: #0F0F0F; stroke-width: 1.5;" x1="361.5" x2="464.5" y1="867.3545" y2="867.3545"/><text fill="#000000" font-family="Open Sans" font-size="11" lengthAdjust="spacingAndGlyphs" textLength="26" x="366.5" y="883.1118">Folio</text><text fill="#000000" font-family="Open Sans" font-size="11" lengthAdjust="spacingAndGlyphs" textLength="46" x="366.5" y="898.0918">AsToPart</text><text fill="#000000" font-family="Open Sans" font-size="11" lengthAdjust="spacingAndGlyphs" textLength="38" x="366.5" y="913.0718">CTType</text><text fill="#000000" font-family="Open Sans" font-size="11" lengthAdjust="spacingAndGlyphs" textLength="64" x="366.5" y="928.0518">ControlType</text><text fill="#000000" font-family="Open Sans" font-size="11" lengthAdjust="spacingAndGlyphs" textLength="93" x="366.5" y="943.0317">ControlPartyCode</text><line style="stroke: #0F0F0F; stroke-width: 1.5;" x1="361.5" x2="464.5" y1="950.2544" y2="950.2544"/><rect fill="#EFF1FF" filter="url(#f1)" height="87.2817" style="stroke: #0F0F0F; stroke-width: 1.5;" width="72" x="501" y="856.0127"/><rect fill="#EFF1FF" height="26.3418" style="stroke: #0F0F0F; stroke-width: 1.5;" width="72" x="501" y="856.0127"/><text fill="#000000" font-family="Open Sans" font-size="12" lengthAdjust="spacingAndGlyphs" textLength="63" x="505.5" y="873.8389">DealingFee</text><line style="stroke: #0F0F0F; stroke-width: 1.5;" x1="502" x2="572" y1="882.3545" y2="882.3545"/><text fill="#000000" font-family="Open Sans" font-size="11" lengthAdjust="spacingAndGlyphs" textLength="43" x="507" y="898.1118">FeeType</text><text fill="#000000" font-family="Open Sans" font-size="11" lengthAdjust="spacingAndGlyphs" textLength="46" x="507" y="913.0918">Quantity</text><text fill="#000000" font-family="Open Sans" font-size="11" lengthAdjust="spacingAndGlyphs" textLength="60" x="507" y="928.0718">FeeAmount</text><line style="stroke: #0F0F0F; stroke-width: 1.5;" x1="502" x2="572" y1="935.2944" y2="935.2944"/><rect fill="#EFF1FF" filter="url(#f1)" height="87.2817" style="stroke: #0F0F0F; stroke-width: 1.5;" width="167" x="712.5" y="439.0127"/><rect fill="#EFF1FF" height="26.3418" style="stroke: #0F0F0F; stroke-width: 1.5;" width="167" x="712.5" y="439.0127"/><text fill="#000000" font-family="Open Sans" font-size="12" lengthAdjust="spacingAndGlyphs" textLength="120" x="736" y="456.8389">EncumbranceDealing</text><line style="stroke: #0F0F0F; stroke-width: 1.5;" x1="713.5" x2="878.5" y1="465.3545" y2="465.3545"/><text fill="#000000" font-family="Open Sans" font-size="11" lengthAdjust="spacingAndGlyphs" textLength="138" x="718.5" y="481.1118">EncumbranceParties: Party</text><text fill="#000000" font-family="Open Sans" font-size="11" lengthAdjust="spacingAndGlyphs" textLength="155" x="718.5" y="496.0918">ServiceOfNoticeContact: Party</text><text fill="#000000" font-family="Open Sans" font-size="11" lengthAdjust="spacingAndGlyphs" textLength="123" x="718.5" y="511.0718">ServiceOfNoticeAddress</text><line style="stroke: #0F0F0F; stroke-width: 1.5;" x1="713.5" x2="878.5" y1="518.2944" y2="518.2944"/><rect fill="#EFF1FF" filter="url(#f1)" height="57.3218" style="stroke: #0F0F0F; stroke-width: 1.5;" width="187" x="276.5" y="254.5127"/><rect fill="#EFF1FF" height="26.3418" style="stroke: #0F0F0F; stroke-width: 1.5;" width="187" x="276.5" y="254.5127"/><text fill="#000000" font-family="Open Sans" font-size="12" lengthAdjust="spacingAndGlyphs" textLength="181" x="279.5" y="272.3389">EncumbranceOnEnmcumbrance</text><line style="stroke: #0F0F0F; stroke-width: 1.5;" x1="277.5" x2="462.5" y1="280.8545" y2="280.8545"/><text fill="#000000" font-family="Open Sans" font-size="11" lengthAdjust="spacingAndGlyphs" textLength="124" x="282.5" y="296.6118">AffectedDealingNumber</text><line style="stroke: #0F0F0F; stroke-width: 1.5;" x1="277.5" x2="462.5" y1="303.8345" y2="303.8345"/><rect fill="#EFF1FF" filter="url(#f1)" height="177.1616" style="stroke: #0F0F0F; stroke-width: 1.5;" width="146" x="890" y="811.0127"/><rect fill="#EFF1FF" height="26.3418" style="stroke: #0F0F0F; stroke-width: 1.5;" width="146" x="890" y="811.0127"/><text fill="#000000" font-family="Open Sans" font-size="12" lengthAdjust="spacingAndGlyphs" textLength="29" x="948.5" y="828.8389">Party</text><line style="stroke: #0F0F0F; stroke-width: 1.5;" x1="891" x2="1035" y1="837.3545" y2="837.3545"/><text fill="#000000" font-family="Open Sans" font-size="11" lengthAdjust="spacingAndGlyphs" textLength="52" x="896" y="853.1118">PartyType</text><text fill="#000000" font-family="Open Sans" font-size="11" lengthAdjust="spacingAndGlyphs" textLength="66" x="896" y="868.0918">GivenName1</text><text fill="#000000" font-family="Open Sans" font-size="11" lengthAdjust="spacingAndGlyphs" textLength="66" x="896" y="883.0718">GivenName2</text><text fill="#000000" font-family="Open Sans" font-size="11" lengthAdjust="spacingAndGlyphs" textLength="95" x="896" y="898.0518">GivenNameOthers</text><text fill="#000000" font-family="Open Sans" font-size="11" lengthAdjust="spacingAndGlyphs" textLength="96" x="896" y="913.0317">SurnameCompany</text><text fill="#000000" font-family="Open Sans" font-size="11" lengthAdjust="spacingAndGlyphs" textLength="41" x="896" y="928.0117">Address</text><text fill="#000000" font-family="Open Sans" font-size="11" lengthAdjust="spacingAndGlyphs" textLength="83" x="896" y="942.9917">ACN_ABN_ARBN</text><text fill="#000000" font-family="Open Sans" font-size="11" lengthAdjust="spacingAndGlyphs" textLength="134" x="896" y="957.9717">OrganisationNumberType</text><text fill="#000000" font-family="Open Sans" font-size="11" lengthAdjust="spacingAndGlyphs" textLength="129" x="896" y="972.9517">GovernmentProprietorID</text><line style="stroke: #0F0F0F; stroke-width: 1.5;" x1="891" x2="1035" y1="980.1743" y2="980.1743"/><rect fill="#EFF1FF" filter="url(#f1)" height="551.6611" style="stroke: #0F0F0F; stroke-width: 1.5;" width="117" x="737.5" y="623.5127"/><rect fill="#EFF1FF" height="26.3418" style="stroke: #0F0F0F; stroke-width: 1.5;" width="117" x="737.5" y="623.5127"/><text fill="#000000" font-family="Open Sans" font-size="12" lengthAdjust="spacingAndGlyphs" textLength="46" x="773" y="641.3389">Address</text><line style="stroke: #0F0F0F; stroke-width: 1.5;" x1="738.5" x2="853.5" y1="649.8545" y2="649.8545"/><text fill="#000000" font-family="Open Sans" font-size="11" lengthAdjust="spacingAndGlyphs" textLength="66" x="743.5" y="665.6118">AddressType</text><text fill="#000000" font-family="Open Sans" font-size="11" lengthAdjust="spacingAndGlyphs" textLength="81" x="743.5" y="680.5918">PropertyName1</text><text fill="#000000" font-family="Open Sans" font-size="11" lengthAdjust="spacingAndGlyphs" textLength="81" x="743.5" y="695.5718">PropertyName2</text><text fill="#000000" font-family="Open Sans" font-size="11" lengthAdjust="spacingAndGlyphs" textLength="52" x="743.5" y="710.5518">FloorType</text><text fill="#000000" font-family="Open Sans" font-size="11" lengthAdjust="spacingAndGlyphs" textLength="42" x="743.5" y="725.5317">FloorNo</text><text fill="#000000" font-family="Open Sans" font-size="11" lengthAdjust="spacingAndGlyphs" textLength="72" x="743.5" y="740.5117">FloorNoSuffix</text><text fill="#000000" font-family="Open Sans" font-size="11" lengthAdjust="spacingAndGlyphs" textLength="47" x="743.5" y="755.4917">UnitType</text><text fill="#000000" font-family="Open Sans" font-size="11" lengthAdjust="spacingAndGlyphs" textLength="64" x="743.5" y="770.4717">UnitNoFrom</text><text fill="#000000" font-family="Open Sans" font-size="11" lengthAdjust="spacingAndGlyphs" textLength="94" x="743.5" y="785.4517">UnitNoFromSuffix</text><text fill="#000000" font-family="Open Sans" font-size="11" lengthAdjust="spacingAndGlyphs" textLength="50" x="743.5" y="800.4316">UnitNoTo</text><text fill="#000000" font-family="Open Sans" font-size="11" lengthAdjust="spacingAndGlyphs" textLength="80" x="743.5" y="815.4116">UnitNoToSuffix</text><text fill="#000000" font-family="Open Sans" font-size="11" lengthAdjust="spacingAndGlyphs" textLength="72" x="743.5" y="830.3916">StreetNoFrom</text><text fill="#000000" font-family="Open Sans" font-size="11" lengthAdjust="spacingAndGlyphs" textLength="105" x="743.5" y="845.3716">StreetNoFrom Suffix</text><text fill="#000000" font-family="Open Sans" font-size="11" lengthAdjust="spacingAndGlyphs" textLength="58" x="743.5" y="860.3516">StreetNoTo</text><text fill="#000000" font-family="Open Sans" font-size="11" lengthAdjust="spacingAndGlyphs" textLength="88" x="743.5" y="875.3315">StreetNoToSuffix</text><text fill="#000000" font-family="Open Sans" font-size="11" lengthAdjust="spacingAndGlyphs" textLength="66" x="743.5" y="890.3115">StreetName1</text><text fill="#000000" font-family="Open Sans" font-size="11" lengthAdjust="spacingAndGlyphs" textLength="61" x="743.5" y="905.2915">StreetType1</text><text fill="#000000" font-family="Open Sans" font-size="11" lengthAdjust="spacingAndGlyphs" textLength="66" x="743.5" y="920.2715">StreetSuffix1</text><text fill="#000000" font-family="Open Sans" font-size="11" lengthAdjust="spacingAndGlyphs" textLength="66" x="743.5" y="935.2515">StreetName2</text><text fill="#000000" font-family="Open Sans" font-size="11" lengthAdjust="spacingAndGlyphs" textLength="61" x="743.5" y="950.2314">StreetType2</text><text fill="#000000" font-family="Open Sans" font-size="11" lengthAdjust="spacingAndGlyphs" textLength="66" x="743.5" y="965.2114">StreetSuffix2</text><text fill="#000000" font-family="Open Sans" font-size="11" lengthAdjust="spacingAndGlyphs" textLength="40" x="743.5" y="980.1914">Locality</text><text fill="#000000" font-family="Open Sans" font-size="11" lengthAdjust="spacingAndGlyphs" textLength="26" x="743.5" y="995.1714">State</text><text fill="#000000" font-family="Open Sans" font-size="11" lengthAdjust="spacingAndGlyphs" textLength="42" x="743.5" y="1010.1514">Country</text><text fill="#000000" font-family="Open Sans" font-size="11" lengthAdjust="spacingAndGlyphs" textLength="50" x="743.5" y="1025.1313">PostCode</text><text fill="#000000" font-family="Open Sans" font-size="11" lengthAdjust="spacingAndGlyphs" textLength="98" x="743.5" y="1040.1113">PostalAddressType</text><text fill="#000000" font-family="Open Sans" font-size="11" lengthAdjust="spacingAndGlyphs" textLength="88" x="743.5" y="1055.0913">PostalAddressNo</text><text fill="#000000" font-family="Open Sans" font-size="11" lengthAdjust="spacingAndGlyphs" textLength="91" x="743.5" y="1070.0713">TextAddressLine1</text><text fill="#000000" font-family="Open Sans" font-size="11" lengthAdjust="spacingAndGlyphs" textLength="91" x="743.5" y="1085.0513">TextAddressLine2</text><text fill="#000000" font-family="Open Sans" font-size="11" lengthAdjust="spacingAndGlyphs" textLength="91" x="743.5" y="1100.0313">TextAddressLine3</text><text fill="#000000" font-family="Open Sans" font-size="11" lengthAdjust="spacingAndGlyphs" textLength="91" x="743.5" y="1115.0112">TextAddressLine4</text><text fill="#000000" font-family="Open Sans" font-size="11" lengthAdjust="spacingAndGlyphs" textLength="97" x="743.5" y="1129.9912">DXAddressNumber</text><text fill="#000000" font-family="Open Sans" font-size="11" lengthAdjust="spacingAndGlyphs" textLength="100" x="743.5" y="1144.9712">DXAddressLocation</text><text fill="#000000" font-family="Open Sans" font-size="11" lengthAdjust="spacingAndGlyphs" textLength="69" x="743.5" y="1159.9512">EmailAddress</text><line style="stroke: #0F0F0F; stroke-width: 1.5;" x1="738.5" x2="853.5" y1="1167.1738" y2="1167.1738"/><rect fill="#FFF0EF" filter="url(#f1)" height="72.3018" style="stroke: #0F0F0F; stroke-width: 1.5;" width="195" x="698.5" y="247.0127"/><rect fill="#FFF0EF" height="26.3418" style="stroke: #0F0F0F; stroke-width: 1.5;" width="195" x="698.5" y="247.0127"/><text fill="#000000" font-family="Open Sans" font-size="12" lengthAdjust="spacingAndGlyphs" textLength="76" x="758" y="264.8389">PriorityNotice</text><line style="stroke: #0F0F0F; stroke-width: 1.5;" x1="699.5" x2="892.5" y1="273.3545" y2="273.3545"/><text fill="#000000" font-family="Open Sans" font-size="11" lengthAdjust="spacingAndGlyphs" textLength="183" x="704.5" y="289.1118">IntendedDealings: IntendedDealing</text><text fill="#000000" font-family="Open Sans" font-size="11" lengthAdjust="spacingAndGlyphs" textLength="56" x="704.5" y="304.0918">ExpiryDate</text><line style="stroke: #0F0F0F; stroke-width: 1.5;" x1="699.5" x2="892.5" y1="311.3145" y2="311.3145"/><rect fill="#FFEFF8" filter="url(#f1)" height="57.3218" style="stroke: #0F0F0F; stroke-width: 1.5;" width="164" x="499" y="254.5127"/><rect fill="#FFEFF8" height="26.3418" style="stroke: #0F0F0F; stroke-width: 1.5;" width="164" x="499" y="254.5127"/><text fill="#000000" font-family="Open Sans" font-size="12" lengthAdjust="spacingAndGlyphs" textLength="129" x="516.5" y="272.3389">WithdrawPriorityNotice</text><line style="stroke: #0F0F0F; stroke-width: 1.5;" x1="500" x2="662" y1="280.8545" y2="280.8545"/><text fill="#000000" font-family="Open Sans" font-size="11" lengthAdjust="spacingAndGlyphs" textLength="152" x="505" y="296.6118">PriorityNoticeDealingNumber</text><line style="stroke: #0F0F0F; stroke-width: 1.5;" x1="500" x2="662" y1="303.8345" y2="303.8345"/><rect fill="#F8EFFF" filter="url(#f1)" height="57.3218" style="stroke: #0F0F0F; stroke-width: 1.5;" width="120" x="325" y="70.0127"/><rect fill="#F8EFFF" height="26.3418" style="stroke: #0F0F0F; stroke-width: 1.5;" width="120" x="325" y="70.0127"/><text fill="#000000" font-family="Open Sans" font-size="12" lengthAdjust="spacingAndGlyphs" textLength="114" x="328" y="87.8389">ExtendPriorityNotice</text><line style="stroke: #0F0F0F; stroke-width: 1.5;" x1="326" x2="444" y1="96.3545" y2="96.3545"/><text fill="#000000" font-family="Open Sans" font-size="11" lengthAdjust="spacingAndGlyphs" textLength="79" x="331" y="112.1118">NewExpiryDate</text><line style="stroke: #0F0F0F; stroke-width: 1.5;" x1="326" x2="444" y1="119.3345" y2="119.3345"/><rect fill="#FFF0EF" filter="url(#f1)" height="117.2417" style="stroke: #0F0F0F; stroke-width: 1.5;" width="228" x="929" y="224.5127"/><rect fill="#FFF0EF" height="26.3418" style="stroke: #0F0F0F; stroke-width: 1.5;" width="228" x="929" y="224.5127"/><text fill="#000000" font-family="Open Sans" font-size="12" lengthAdjust="spacingAndGlyphs" textLength="92" x="997" y="242.3389">IntendedDealing</text><line style="stroke: #0F0F0F; stroke-width: 1.5;" x1="930" x2="1156" y1="250.8545" y2="250.8545"/><text fill="#000000" font-family="Open Sans" font-size="11" lengthAdjust="spacingAndGlyphs" textLength="89" x="935" y="266.6118">DealingSequence</text><text fill="#000000" font-family="Open Sans" font-size="11" lengthAdjust="spacingAndGlyphs" textLength="64" x="935" y="281.5918">DealingType</text><text fill="#000000" font-family="Open Sans" font-size="11" lengthAdjust="spacingAndGlyphs" textLength="216" x="935" y="296.5718">AffectedDealingNumbers: DealingNumber</text><text fill="#000000" font-family="Open Sans" font-size="11" lengthAdjust="spacingAndGlyphs" textLength="208" x="935" y="311.5518">AffectedLandReferences: LandReference</text><text fill="#000000" font-family="Open Sans" font-size="11" lengthAdjust="spacingAndGlyphs" textLength="117" x="935" y="326.5317">PartiesReceiving: Party</text><line style="stroke: #0F0F0F; stroke-width: 1.5;" x1="930" x2="1156" y1="333.7544" y2="333.7544"/><rect fill="#FFF0EF" filter="url(#f1)" height="87.2817" style="stroke: #0F0F0F; stroke-width: 1.5;" width="188" x="1192" y="239.5127"/><rect fill="#FFF0EF" height="26.3418" style="stroke: #0F0F0F; stroke-width: 1.5;" width="188" x="1192" y="239.5127"/><text fill="#000000" font-family="Open Sans" font-size="12" lengthAdjust="spacingAndGlyphs" textLength="84" x="1244" y="257.3389">LandReference</text><line style="stroke: #0F0F0F; stroke-width: 1.5;" x1="1193" x2="1379" y1="265.8545" y2="265.8545"/><text fill="#000000" font-family="Open Sans" font-size="11" lengthAdjust="spacingAndGlyphs" textLength="26" x="1198" y="281.6118">Folio</text><text fill="#000000" font-family="Open Sans" font-size="11" lengthAdjust="spacingAndGlyphs" textLength="46" x="1198" y="296.5918">AsToPart</text><text fill="#000000" font-family="Open Sans" font-size="11" lengthAdjust="spacingAndGlyphs" textLength="176" x="1198" y="311.5718">LandDescription: LandDescription</text><line style="stroke: #0F0F0F; stroke-width: 1.5;" x1="1193" x2="1379" y1="318.7944" y2="318.7944"/><path d="M152.995,164.6227 C155.185,193.1767 157.661,225.4557 159.462,248.9287 " fill="none" style="stroke: #A80036; stroke-width: 1.0;"/><polygon fill="#A80036" points="159.859,254.0977,163.1582,244.8179,159.4762,249.1124,155.1817,245.4304,159.859,254.0977" style="stroke: #A80036; stroke-width: 1.0;"/><text fill="#000000" font-family="Open Sans" font-size="13" lengthAdjust="spacingAndGlyphs" textLength="7" x="146.1585" y="186.7045">1</text><text fill="#000000" font-family="Open Sans" font-size="13" lengthAdjust="spacingAndGlyphs" textLength="20" x="137.2032" y="242.8499">1..*</text><path d="M205.851,311.6817 C254.731,342.5247 334.8,393.0477 394.924,430.9857 " fill="none" style="stroke: #A80036; stroke-width: 1.0;"/><polygon fill="#A80036" points="399.218,433.6947,393.7417,425.5088,394.9896,431.0262,389.4721,432.2742,399.218,433.6947" style="stroke: #A80036; stroke-width: 1.0;"/><text fill="#000000" font-family="Open Sans" font-size="13" lengthAdjust="spacingAndGlyphs" textLength="7" x="207.6778" y="333.7492">1</text><text fill="#000000" font-family="Open Sans" font-size="13" lengthAdjust="spacingAndGlyphs" textLength="20" x="371.578" y="425.5081">1..*</text><path d="M463.046,563.5287 C451.19,642.8837 433.267,762.8537 422.395,835.6247 " fill="none" style="stroke: #A80036; stroke-width: 1.0;"/><polygon fill="#A80036" points="421.625,840.7817,426.9104,832.4712,422.3635,835.8365,418.9982,831.2896,421.625,840.7817" style="stroke: #A80036; stroke-width: 1.0;"/><text fill="#000000" font-family="Open Sans" font-size="13" lengthAdjust="spacingAndGlyphs" textLength="7" x="454.6213" y="585.7">1</text><text fill="#000000" font-family="Open Sans" font-size="13" lengthAdjust="spacingAndGlyphs" textLength="20" x="401.4488" y="829.0923">1..*</text><path d="M486.954,563.5287 C499.661,648.5787 519.337,780.2827 529.832,850.5307 " fill="none" style="stroke: #A80036; stroke-width: 1.0;"/><polygon fill="#A80036" points="530.633,855.8937,533.2598,846.4016,529.8945,850.9485,525.3476,847.5832,530.633,855.8937" style="stroke: #A80036; stroke-width: 1.0;"/><text fill="#000000" font-family="Open Sans" font-size="13" lengthAdjust="spacingAndGlyphs" textLength="7" x="480.7334" y="585.7">1</text><text fill="#000000" font-family="Open Sans" font-size="13" lengthAdjust="spacingAndGlyphs" textLength="20" x="507.9222" y="844.1914">1..*</text><path d="M566.038,311.8907 C555.834,330.9017 541.655,357.3197 527.522,383.6537 " fill="none" style="stroke: #A80036; stroke-width: 1.0;"/><polygon fill="none" points="533.666,387.0087,518.04,401.3207,521.33,380.3887,533.666,387.0087" style="stroke: #A80036; stroke-width: 1.0;"/><path d="M570.743,482.5127 C617.863,482.5127 664.984,482.5127 712.105,482.5127 " fill="none" style="stroke: #A80036; stroke-width: 1.0;"/><polygon fill="none" points="570.548,489.5127,550.548,482.5127,570.548,475.5127,570.548,489.5127" style="stroke: #A80036; stroke-width: 1.0;"/><path d="M384.821,311.8907 C394.928,330.9017 408.973,357.3197 422.973,383.6537 " fill="none" style="stroke: #A80036; stroke-width: 1.0;"/><polygon fill="none" points="429.159,380.3757,432.366,401.3207,416.797,386.9477,429.159,380.3757" style="stroke: #A80036; stroke-width: 1.0;"/><path d="M382.722,127.2327 C380.391,155.5827 376.725,200.1867 373.926,234.2427 " fill="none" style="stroke: #A80036; stroke-width: 1.0;"/><polygon fill="none" points="380.89,234.9747,372.275,254.3337,366.937,233.8277,380.89,234.9747" style="stroke: #A80036; stroke-width: 1.0;"/><path d="M821.657,526.0347 C837.448,553.2867 857.39,589.7557 872,623.5127 C897.691,682.8727 920.537,752.0017 936.912,806.0997 " fill="none" style="stroke: #A80036; stroke-width: 1.0;"/><polygon fill="#A80036" points="938.377,810.9567,939.6069,801.1849,936.9328,806.1698,931.9479,803.4957,938.377,810.9567" style="stroke: #A80036; stroke-width: 1.0;"/><text fill="#000000" font-family="Open Sans" font-size="13" lengthAdjust="spacingAndGlyphs" textLength="7" x="818.1883" y="548.2543">1</text><text fill="#000000" font-family="Open Sans" font-size="13" lengthAdjust="spacingAndGlyphs" textLength="20" x="915.2934" y="799.2318">1..*</text><path d="M859.922,899.5127 C869.888,899.5127 879.854,899.5127 889.82,899.5127 " fill="none" style="stroke: #A80036; stroke-width: 1.0;"/><polygon fill="#A80036" points="854.711,899.5127,863.711,903.5127,859.711,899.5127,863.711,895.5127,854.711,899.5127" style="stroke: #A80036; stroke-width: 1.0;"/><text fill="#000000" font-family="Open Sans" font-size="13" lengthAdjust="spacingAndGlyphs" textLength="20" x="862.6557" y="895.4852">0..*</text><text fill="#000000" font-family="Open Sans" font-size="13" lengthAdjust="spacingAndGlyphs" textLength="7" x="874.9124" y="895.5591">1</text><path d="M796,526.3617 C796,550.3447 796,582.5167 796,617.9467 " fill="none" style="stroke: #A80036; stroke-width: 1.0;"/><polygon fill="#A80036" points="796,623.1967,800,614.1967,796,618.1967,792,614.1967,796,623.1967" style="stroke: #A80036; stroke-width: 1.0;"/><text fill="#000000" font-family="Open Sans" font-size="13" lengthAdjust="spacingAndGlyphs" textLength="7" x="788.4641" y="548.305">1</text><text fill="#000000" font-family="Open Sans" font-size="13" lengthAdjust="spacingAndGlyphs" textLength="20" x="775.7031" y="611.6517">0..*</text><path d="M796,319.3217 C796,346.9397 796,386.0377 796,418.9267 " fill="none" style="stroke: #A80036; stroke-width: 1.0;"/><polygon fill="none" points="803,418.9507,796,438.9507,789,418.9507,803,418.9507" style="stroke: #A80036; stroke-width: 1.0;"/><path d="M893.932,283.0127 C903.849,283.0127 913.766,283.0127 923.683,283.0127 " fill="none" style="stroke: #A80036; stroke-width: 1.0;"/><polygon fill="#A80036" points="928.87,283.0127,919.87,279.0127,923.87,283.0127,919.87,287.0127,928.87,283.0127" style="stroke: #A80036; stroke-width: 1.0;"/><path d="M1035.51,341.5467 C1021.64,448.0777 991.853,676.8887 975.093,805.6247 " fill="none" style="stroke: #A80036; stroke-width: 1.0;"/><polygon fill="#A80036" points="974.403,810.9197,979.532,802.5118,975.0488,805.9616,971.599,801.4784,974.403,810.9197" style="stroke: #A80036; stroke-width: 1.0;"/><text fill="#000000" font-family="Open Sans" font-size="13" lengthAdjust="spacingAndGlyphs" textLength="7" x="1027.1706" y="363.6396">1</text><text fill="#000000" font-family="Open Sans" font-size="13" lengthAdjust="spacingAndGlyphs" textLength="20" x="954.528" y="799.1915">0..*</text><path d="M1157.38,283.0127 C1167.15,283.0127 1176.92,283.0127 1186.69,283.0127 " fill="none" style="stroke: #A80036; stroke-width: 1.0;"/><polygon fill="#A80036" points="1191.8,283.0127,1182.8,279.0127,1186.8,283.0127,1182.8,287.0127,1191.8,283.0127" style="stroke: #A80036; stroke-width: 1.0;"/><text fill="#000000" font-family="Open Sans" font-size="13" lengthAdjust="spacingAndGlyphs" textLength="7" x="1164.9317" y="279.378">1</text><text fill="#000000" font-family="Open Sans" font-size="13" lengthAdjust="spacingAndGlyphs" textLength="20" x="1164.1478" y="279.299">1..*</text></g></svg>